<svg width="35" height="35" viewBox="0 0 35 35" fill="none" xmlns="http://www.w3.org/2000/svg">
<path d="M22.6106 5.12695C22.6106 2.29995 20.3106 0 17.4836 0C14.6566 0 12.3567 2.29995 12.3567 5.12695C12.3567 7.95396 14.6566 10.2539 17.4836 10.2539C20.3106 10.2539 22.6106 7.95396 22.6106 5.12695ZM17.4836 8.20313C15.7874 8.20313 14.4074 6.82315 14.4074 5.12695C14.4074 3.43075 15.7874 2.05078 17.4836 2.05078C19.1798 2.05078 20.5598 3.43075 20.5598 5.12695C20.5598 6.82315 19.1798 8.20313 17.4836 8.20313Z" fill="#54D9B3"/>
<path d="M34.9672 26.7969L32.6847 24.9708C29.9988 22.8221 28.2313 19.7726 27.8351 16.6043C27.3917 13.0573 24.5642 10.2539 21.0104 10.2539H13.9568C10.3965 10.2539 7.57477 13.0637 7.132 16.6043C6.73586 19.7725 4.96829 22.8221 2.28245 24.9708L0 26.7969C0 26.7969 3.06332 26.7951 3.13346 26.7937C2.48678 27.6518 2.10273 28.7183 2.10273 29.873C2.10273 32.6904 4.38717 34.9837 7.20091 34.9992L7.19954 35H27.7375C30.5645 35 32.8645 32.7 32.8645 29.873C32.8645 28.7188 32.4808 27.6526 31.8346 26.7948C31.9044 26.7961 34.9672 26.7969 34.9672 26.7969ZM9.16699 16.8588C9.49689 14.22 11.5113 12.3047 13.9568 12.3047H21.0104C23.4559 12.3047 25.4703 14.22 25.8002 16.8588C26.1291 19.4894 27.2599 22.0424 29.003 24.1897C26.6517 23.3125 24.6223 21.449 23.4553 18.963L22.0808 16.035L19.9373 28.1506C19.1244 28.5789 18.2982 29.021 17.4835 29.4608C16.5916 28.9795 15.7771 28.5448 15.0336 28.1533L13.0627 16.5819L11.6691 19.4952C10.6409 21.6446 8.41224 23.4146 5.92163 24.2418C7.68906 22.0837 8.83538 19.5108 9.16699 16.8588ZM12.0137 22.6368L12.7523 26.9729C10.9514 26.0616 9.7259 25.501 8.86819 25.1701C10.0622 24.4934 11.1388 23.6325 12.0137 22.6368ZM11.0757 32.9492H7.22969C5.53349 32.9492 4.15352 31.5692 4.15352 29.873C4.15352 28.1791 5.5298 26.8006 7.22285 26.7969C8.32809 26.8821 14.3459 30.1056 15.3292 30.6312C13.5613 31.5967 12.0968 32.4044 11.0757 32.9492ZM27.7375 32.9492H15.3645C16.6641 32.2379 26.3089 26.9036 27.7442 26.7969C29.4373 26.8006 30.8137 28.1791 30.8137 29.873C30.8137 31.5692 29.4337 32.9492 27.7375 32.9492ZM22.2298 26.9644L23.0679 22.2275C23.9537 23.3627 25.0329 24.3413 26.2606 25.1057C25.4373 25.4132 24.1947 25.9706 22.2298 26.9644Z" fill="#54D9B3"/>
</svg>
