<svg width="35" height="35" viewBox="0 0 35 35" fill="none" xmlns="http://www.w3.org/2000/svg">
<path d="M34.6909 14.9787L32.5634 14.0576C32.4787 13.6862 32.3794 13.3152 32.2668 12.9493L33.6485 11.088C33.7703 10.9238 33.783 10.703 33.6808 10.526L31.63 6.97402C31.5278 6.7969 31.3303 6.69758 31.1269 6.72109L28.8209 6.98872C28.5616 6.70954 28.2905 6.4385 28.0113 6.17914L28.279 3.87317C28.3026 3.67001 28.2032 3.47231 28.026 3.37005L24.474 1.31927C24.297 1.21707 24.0762 1.22979 23.9121 1.3516L22.0507 2.73321C21.6848 2.62056 21.3138 2.52123 20.9424 2.4366L20.0213 0.309053C19.9401 0.121406 19.7552 0 19.5508 0H15.4492C15.2448 0 15.0599 0.121406 14.9787 0.309053L14.0576 2.4366C13.6862 2.5213 13.3152 2.62056 12.9493 2.73321L11.088 1.35153C10.9239 1.22965 10.7031 1.217 10.526 1.3192L6.97395 3.36998C6.79684 3.47225 6.69744 3.66994 6.72103 3.87311L6.98865 6.17907C6.70954 6.43843 6.4385 6.70947 6.17907 6.98865L3.87311 6.72103C3.6698 6.69744 3.47225 6.79684 3.36998 6.97395L1.3192 10.526C1.217 10.703 1.22972 10.9238 1.35153 11.0879L2.73321 12.9492C2.62056 13.3152 2.52123 13.6862 2.4366 14.0576L0.309053 14.9787C0.121406 15.0599 0 15.2448 0 15.4492V19.5508C0 19.7552 0.121406 19.9401 0.309053 20.0213L2.4366 20.9424C2.5213 21.3137 2.62056 21.6848 2.73321 22.0507L1.35153 23.912C1.22972 24.0762 1.217 24.297 1.3192 24.474L3.36998 28.026C3.47225 28.2031 3.67001 28.3027 3.87311 28.279L6.17907 28.0113C6.4385 28.2905 6.70954 28.5615 6.98865 28.8209L6.72103 31.1269C6.69744 31.3301 6.79684 31.5278 6.97395 31.63L10.526 33.6808C10.7031 33.7831 10.9238 33.7703 11.088 33.6485L12.9493 32.2668C13.3153 32.3794 13.6863 32.4788 14.0576 32.5634L14.9787 34.6909C15.0599 34.8786 15.2448 35 15.4492 35H19.5508C19.7552 35 19.9401 34.8786 20.0213 34.6909L20.9424 32.5634C21.3137 32.4787 21.6848 32.3794 22.0507 32.2668L23.912 33.6485C24.0761 33.7704 24.297 33.7831 24.474 33.6808L28.026 31.63C28.2031 31.5278 28.3025 31.3301 28.2789 31.1269L28.0113 28.8209C28.2905 28.5615 28.5615 28.2905 28.8209 28.0113L31.1268 28.279C31.3302 28.3026 31.5277 28.2031 31.6299 28.026L33.6807 24.474C33.7829 24.297 33.7702 24.0762 33.6484 23.912L32.2667 22.0507C32.3794 21.6848 32.4787 21.3138 32.5633 20.9424L34.6909 20.0213C34.8786 19.9401 35 19.7552 35 19.5508V15.4492C35 15.2448 34.8786 15.0599 34.6909 14.9787ZM33.9746 19.214L31.9151 20.1057C31.7622 20.1718 31.6511 20.3081 31.617 20.4711C31.5105 20.9792 31.3741 21.489 31.2115 21.9863C31.1598 22.1444 31.188 22.3177 31.2871 22.4512L32.6244 24.2528L30.9105 27.2215L28.6785 26.9625C28.5131 26.9435 28.3488 27.0056 28.2378 27.1294C27.8899 27.517 27.517 27.8899 27.1294 28.2378C27.0055 28.3488 26.9434 28.5132 26.9625 28.6785L27.2215 30.9105L24.2528 32.6244L22.4511 31.2871C22.3176 31.188 22.1443 31.1598 21.9862 31.2115C21.4888 31.3741 20.979 31.5106 20.471 31.6169C20.308 31.651 20.1718 31.7622 20.1056 31.915L19.214 33.9746H15.786L14.8943 31.915C14.8282 31.7622 14.6919 31.651 14.5289 31.6169C14.0209 31.5105 13.5112 31.3741 13.0137 31.2115C12.8557 31.1598 12.6823 31.188 12.5488 31.2871L10.7472 32.6244L7.77848 30.9105L8.03749 28.6785C8.05663 28.5132 7.99449 28.3489 7.87069 28.2378C7.4831 27.8899 7.11013 27.517 6.76225 27.1294C6.65116 27.0055 6.48689 26.9436 6.3216 26.9626L4.0896 27.2216L2.37549 24.2529L3.7128 22.4513C3.81192 22.3178 3.84016 22.1444 3.78841 21.9864C3.62578 21.489 3.48934 20.9791 3.38304 20.4712C3.34893 20.3081 3.23777 20.1719 3.08492 20.1057L1.02539 19.214V15.786L3.08499 14.8943C3.23784 14.8282 3.34899 14.6919 3.38311 14.5289C3.48947 14.0209 3.62585 13.5112 3.78848 13.0137C3.84016 12.8556 3.81199 12.6823 3.71287 12.5488L2.37549 10.7471L4.08946 7.77841L6.32146 8.03742C6.48689 8.05629 6.65109 7.99436 6.76218 7.87056C7.11006 7.48296 7.48296 7.10999 7.87056 6.76218C7.99442 6.65109 8.05656 6.48676 8.03742 6.32146L7.77841 4.08946L10.7471 2.37549L12.5487 3.7128C12.6822 3.81192 12.8555 3.84022 13.0136 3.78841C13.511 3.62578 14.0208 3.4894 14.5288 3.38297C14.6919 3.34879 14.8281 3.2377 14.8943 3.08485L15.786 1.02539H19.214L20.1057 3.08492C20.1718 3.23777 20.3081 3.34893 20.4711 3.38304C20.9792 3.48947 21.489 3.62585 21.9863 3.78848C22.1444 3.84029 22.3177 3.81199 22.4512 3.71287L24.2529 2.37556L27.2216 4.08953L26.9626 6.32153C26.9434 6.48683 27.0056 6.65109 27.1294 6.76225C27.5171 7.11006 27.89 7.48296 28.2378 7.87063C28.3489 7.99442 28.513 8.05656 28.6785 8.03749L30.9105 7.77848L32.6245 10.7472L31.2872 12.5489C31.1881 12.6824 31.1598 12.8557 31.2116 13.0138C31.3742 13.5111 31.5106 14.0209 31.617 14.529C31.6512 14.692 31.7623 14.8282 31.9151 14.8944L33.9746 15.786V19.214Z" fill="#54D9B3"/>
<path d="M17.5 4.10156C14.3162 4.10156 11.2301 5.23838 8.81002 7.30256C8.59462 7.48631 8.56892 7.80992 8.75267 8.02532C8.93642 8.24072 9.26003 8.26643 9.47543 8.08268C11.7101 6.17668 14.5599 5.12695 17.5 5.12695C24.3225 5.12695 29.873 10.6775 29.873 17.5C29.873 24.3225 24.3225 29.873 17.5 29.873C10.6775 29.873 5.12695 24.3225 5.12695 17.5C5.12695 14.5599 6.17668 11.7101 8.08268 9.47543C8.26643 9.26003 8.24079 8.93642 8.02532 8.75267C7.80985 8.56892 7.48624 8.59455 7.30256 8.81002C5.23838 11.2301 4.10156 14.3162 4.10156 17.5C4.10156 24.8879 10.1121 30.8984 17.5 30.8984C24.8879 30.8984 30.8984 24.8879 30.8984 17.5C30.8984 10.1121 24.8879 4.10156 17.5 4.10156Z" fill="#54D9B3"/>
<path d="M17.5 28.8477C23.7571 28.8477 28.8477 23.7571 28.8477 17.5C28.8477 11.2429 23.7571 6.15234 17.5 6.15234C11.2429 6.15234 6.15234 11.2429 6.15234 17.5C6.15234 23.7571 11.2429 28.8477 17.5 28.8477ZM16.9873 11.792C16.9873 11.5093 17.2173 11.2793 17.5 11.2793C17.7827 11.2793 18.0127 11.5093 18.0127 11.792C18.0127 12.0747 17.7827 12.3047 17.5 12.3047C17.2173 12.3047 16.9873 12.0747 16.9873 11.792ZM17.5 7.17773C23.1917 7.17773 27.8223 11.8083 27.8223 17.5C27.8223 21.9303 25.0166 25.7172 21.0889 27.1784V23.8647L22.9895 21.9641C23.0856 21.868 23.1396 21.7376 23.1396 21.6016V18.95C23.7364 18.7383 24.165 18.1685 24.165 17.5001C24.165 16.6519 23.4751 15.962 22.627 15.962C21.7788 15.962 21.0889 16.6519 21.0889 17.5001C21.0889 18.1685 21.5175 18.7383 22.1143 18.95V21.3893L20.2137 23.2899C20.1175 23.386 20.0635 23.5164 20.0635 23.6524V27.5C19.4029 27.6695 18.7169 27.7749 18.0127 27.8096V13.2419C18.6094 13.0303 19.0381 12.4604 19.0381 11.792C19.0381 10.9439 18.3481 10.2539 17.5 10.2539C16.6519 10.2539 15.9619 10.9439 15.9619 11.792C15.9619 12.4604 16.3906 13.0303 16.9873 13.2419V27.8095C16.2831 27.7749 15.5971 27.6694 14.9365 27.5V23.6523C14.9365 23.5164 14.8825 23.3859 14.7863 23.2898L12.8857 21.3892V18.9499C13.4825 18.7383 13.9111 18.1684 13.9111 17.5C13.9111 16.6519 13.2212 15.9619 12.373 15.9619C11.5249 15.9619 10.835 16.6519 10.835 17.5C10.835 18.1684 11.2636 18.7383 11.8604 18.9499V21.6016C11.8604 21.7375 11.9144 21.868 12.0105 21.9641L13.9111 23.8647V27.1783C9.98341 25.7172 7.17773 21.9303 7.17773 17.5C7.17773 11.8083 11.8083 7.17773 17.5 7.17773ZM22.1143 17.5C22.1143 17.2173 22.3442 16.9873 22.627 16.9873C22.9097 16.9873 23.1396 17.2173 23.1396 17.5C23.1396 17.7827 22.9097 18.0127 22.627 18.0127C22.3442 18.0127 22.1143 17.7827 22.1143 17.5ZM11.8604 17.5C11.8604 17.2173 12.0903 16.9873 12.373 16.9873C12.6558 16.9873 12.8857 17.2173 12.8857 17.5C12.8857 17.7827 12.6558 18.0127 12.373 18.0127C12.0903 18.0127 11.8604 17.7827 11.8604 17.5Z" fill="#54D9B3"/>
</svg>
