<svg width="37" height="35" viewBox="0 0 37 35" fill="none" xmlns="http://www.w3.org/2000/svg">
<path d="M1.18562 5.94772H4.89548C5.05862 5.94069 5.21311 5.87243 5.32816 5.75657C5.44321 5.6407 5.51037 5.48573 5.51625 5.32255V4.18252H11.9656C10.4097 5.04325 9.05208 6.22136 7.98076 7.64046C6.90944 9.05957 6.14832 10.688 5.74675 12.4201H3.66867C3.59301 12.4179 3.51768 12.431 3.44718 12.4585C3.37668 12.4861 3.31245 12.5275 3.25835 12.5805C3.20425 12.6334 3.16137 12.6967 3.13229 12.7666C3.10321 12.8365 3.08852 12.9115 3.0891 12.9872V17.6495C3.08824 17.726 3.10264 17.8018 3.13144 17.8726C3.16025 17.9433 3.20289 18.0077 3.25686 18.0618C3.31083 18.1159 3.37505 18.1587 3.44576 18.1877C3.51647 18.2167 3.59225 18.2312 3.66867 18.2306H8.33027C8.40615 18.231 8.48133 18.2162 8.55136 18.187C8.62139 18.1578 8.68484 18.1148 8.73794 18.0606C8.79104 18.0064 8.83271 17.9421 8.86047 17.8715C8.88823 17.8009 8.90152 17.7254 8.89955 17.6495V12.9872C8.90128 12.9121 8.88772 12.8374 8.8597 12.7676C8.83168 12.6979 8.78977 12.6346 8.73653 12.5816C8.68329 12.5285 8.61982 12.4869 8.54998 12.4591C8.48014 12.4314 8.4054 12.4181 8.33027 12.4201H6.95908C7.4595 10.4651 8.46759 8.67708 9.88127 7.23697C11.295 5.79686 13.064 4.75584 15.0094 4.2193C15.2247 4.85288 15.6329 5.40316 16.1768 5.79289C16.7208 6.18262 17.3731 6.39224 18.0423 6.39232C18.7114 6.3924 19.3638 6.18294 19.9078 5.79334C20.4518 5.40375 20.8602 4.85357 21.0756 4.22003C23.0212 4.75597 24.7905 5.79671 26.2042 7.23677C27.6179 8.67682 28.6259 10.465 29.1258 12.4201H27.7548C27.4298 12.4201 27.14 12.6623 27.14 12.9872V17.6495C27.14 17.9746 27.4298 18.2306 27.7548 18.2306H32.4164C32.5737 18.233 32.7256 18.1733 32.8393 18.0646C32.953 17.9559 33.0193 17.8068 33.024 17.6495V12.9872C33.024 12.6623 32.7415 12.4201 32.4164 12.4201H30.3378C29.9369 10.6881 29.1762 9.05964 28.1053 7.64051C27.0343 6.22138 25.677 5.04324 24.1214 4.18252H30.6704V5.32255C30.6762 5.48573 30.7434 5.6407 30.8585 5.75657C30.9735 5.87243 31.128 5.94069 31.2911 5.94772H35.001C35.3259 5.94772 35.5982 5.64749 35.5982 5.32255V1.61195C35.5964 1.4546 35.5327 1.3043 35.4209 1.19352C35.3092 1.08274 35.1583 1.02036 35.001 1.01987H31.2911C30.9661 1.01987 30.6704 1.28693 30.6704 1.61195V3.00572H21.2328C21.1843 2.19248 20.8271 1.42846 20.2341 0.869791C19.6412 0.311125 18.8572 0 18.0426 0C17.2279 0 16.4439 0.311125 15.851 0.869791C15.258 1.42846 14.9008 2.19248 14.8523 3.00572H5.51625V1.61195C5.51625 1.28693 5.2205 1.01987 4.89548 1.01987H1.18562C1.02827 1.02036 0.877422 1.08274 0.765674 1.19352C0.653927 1.3043 0.590248 1.4546 0.588394 1.61195V5.32255C0.588394 5.64749 0.860529 5.94772 1.18562 5.94772ZM7.72275 13.5969V17.0538H4.2659V13.5969H7.72275ZM31.8472 13.5969V17.0538H28.3168V13.5969H31.8472ZM31.8472 2.19667H34.4214V4.77092H31.8472V2.19667ZM16.614 1.76912C16.9444 1.43832 17.3794 1.23234 17.8447 1.18628C18.3099 1.14022 18.7768 1.25693 19.1657 1.51652C19.5546 1.77611 19.8414 2.16252 19.9773 2.6099C20.1132 3.05728 20.0898 3.53794 19.911 3.96999C19.7323 4.40203 19.4092 4.75871 18.9969 4.97925C18.5846 5.19979 18.1086 5.27055 17.65 5.17945C17.1914 5.08836 16.7786 4.84106 16.4819 4.47969C16.1852 4.11833 16.023 3.66526 16.0229 3.19769C16.0221 2.93231 16.0739 2.66942 16.1754 2.42421C16.2768 2.179 16.4259 1.95634 16.614 1.76912ZM1.7652 2.19667H4.33945V4.77092H1.7652V2.19667Z" fill="#54D9B3"/>
<path d="M35.5769 23.3791H23.9746L24.6687 18.8133C24.6875 18.6913 24.6659 18.5664 24.607 18.4579L18.6134 7.13807C18.563 7.04379 18.4879 6.96501 18.3961 6.91018C18.3043 6.85535 18.1993 6.82654 18.0924 6.82685C17.9855 6.82715 17.8807 6.85655 17.7892 6.9119C17.6978 6.96724 17.6231 7.04645 17.5732 7.14101L11.5796 18.4653C11.5199 18.5727 11.4984 18.6971 11.5187 18.8183L12.2534 23.3791H0.60973C0.448266 23.3854 0.295288 23.4531 0.181989 23.5683C0.0686902 23.6835 0.00360332 23.8376 0 23.9991V34.4013C0.00442714 34.5606 0.0704269 34.712 0.18413 34.8236C0.297832 34.9353 0.450385 34.9985 0.60973 35H35.5769C35.7362 34.9985 35.8888 34.9353 36.0025 34.8236C36.1162 34.712 36.1822 34.5606 36.1866 34.4013V23.9991C36.183 23.8376 36.1179 23.6835 36.0046 23.5683C35.8913 23.4531 35.7383 23.3854 35.5769 23.3791ZM18.0933 15.0275C18.2583 15.0275 18.4195 15.0764 18.5567 15.168C18.6938 15.2597 18.8007 15.39 18.8639 15.5424C18.927 15.6948 18.9435 15.8625 18.9113 16.0243C18.8792 16.1861 18.7997 16.3347 18.6831 16.4513C18.5664 16.568 18.4178 16.6474 18.256 16.6796C18.0942 16.7118 17.9265 16.6952 17.7741 16.6321C17.6217 16.569 17.4915 16.4621 17.3998 16.3249C17.3082 16.1878 17.2593 16.0265 17.2593 15.8615C17.2595 15.6404 17.3475 15.4284 17.5038 15.2721C17.6602 15.1157 17.8722 15.0277 18.0933 15.0275ZM17.5049 9.78705V13.9391C17.0442 14.0801 16.6495 14.3817 16.3925 14.7892C16.1355 15.1967 16.0333 15.6829 16.1046 16.1594C16.1758 16.6359 16.4158 17.0709 16.7808 17.3854C17.1458 17.6998 17.6115 17.8728 18.0933 17.8728C18.5751 17.8728 19.0408 17.6998 19.4058 17.3854C19.7708 17.0709 20.0108 16.6359 20.082 16.1594C20.1533 15.6829 20.0511 15.1967 19.7941 14.7892C19.5371 14.3817 19.1424 14.0801 18.6817 13.9391V9.78705L23.4761 18.8292L22.7844 23.3791H13.4455L12.7119 18.8263L17.5049 9.78705ZM35.0098 33.8232H32.5091V32.1536C32.5091 31.9976 32.4471 31.8479 32.3368 31.7376C32.2264 31.6272 32.0768 31.5652 31.9207 31.5652C31.7647 31.5652 31.615 31.6272 31.5047 31.7376C31.3943 31.8479 31.3323 31.9976 31.3323 32.1536V33.8232H29.42V30.9239C29.42 30.7678 29.358 30.6181 29.2477 30.5078C29.1373 30.3974 28.9877 30.3355 28.8316 30.3355C28.6756 30.3355 28.5259 30.3974 28.4156 30.5078C28.3052 30.6181 28.2432 30.7678 28.2432 30.9239V33.8232H26.3309V32.1536C26.3309 31.9976 26.2689 31.8479 26.1586 31.7376C26.0482 31.6272 25.8986 31.5652 25.7425 31.5652C25.5865 31.5652 25.4368 31.6272 25.3264 31.7376C25.2161 31.8479 25.1541 31.9976 25.1541 32.1536V33.8232H23.3154V30.9239C23.3154 30.7678 23.2534 30.6181 23.143 30.5078C23.0327 30.3974 22.883 30.3355 22.727 30.3355C22.5709 30.3355 22.4212 30.3974 22.3109 30.5078C22.2006 30.6181 22.1386 30.7678 22.1386 30.9239V33.8232H20.2263V32.1536C20.2263 31.9976 20.1643 31.8479 20.0539 31.7376C19.9436 31.6272 19.7939 31.5652 19.6379 31.5652C19.4818 31.5652 19.3321 31.6272 19.2218 31.7376C19.1115 31.8479 19.0495 31.9976 19.0495 32.1536V33.8232H17.1372V30.9239C17.1372 30.7678 17.0752 30.6181 16.9648 30.5078C16.8545 30.3974 16.7048 30.3355 16.5488 30.3355C16.3927 30.3355 16.243 30.3974 16.1327 30.5078C16.0223 30.6181 15.9604 30.7678 15.9604 30.9239V33.8232H14.0481V32.1536C14.0481 31.9976 13.9861 31.8479 13.8757 31.7376C13.7654 31.6272 13.6157 31.5652 13.4597 31.5652C13.3036 31.5652 13.1539 31.6272 13.0436 31.7376C12.9332 31.8479 12.8713 31.9976 12.8713 32.1536V33.8232H11.0325V30.9239C11.0325 30.7678 10.9705 30.6181 10.8602 30.5078C10.7498 30.3974 10.6002 30.3355 10.4441 30.3355C10.2881 30.3355 10.1384 30.3974 10.028 30.5078C9.9177 30.6181 9.8557 30.7678 9.8557 30.9239V33.8232H7.9434V32.1536C7.9434 31.9976 7.88141 31.8479 7.77106 31.7376C7.66072 31.6272 7.51106 31.5652 7.355 31.5652C7.19895 31.5652 7.04929 31.6272 6.93894 31.7376C6.82859 31.8479 6.7666 31.9976 6.7666 32.1536V33.8232H4.8543V30.9239C4.8543 30.7678 4.79231 30.6181 4.68196 30.5078C4.57162 30.3974 4.42196 30.3355 4.2659 30.3355C4.10985 30.3355 3.96019 30.3974 3.84984 30.5078C3.73949 30.6181 3.6775 30.7678 3.6775 30.9239V33.8232H1.1768V27.7185H35.0098V33.8232ZM35.0098 26.5417H1.1768V24.5559H35.0098V26.5417Z" fill="#54D9B3"/>
</svg>
