<svg width="44" height="35" viewBox="0 0 44 35" fill="none" xmlns="http://www.w3.org/2000/svg">
<path fill-rule="evenodd" clip-rule="evenodd" d="M37.0311 0C35.9238 0 35.0118 0.912019 35.0118 2.01923C35.0118 2.25078 35.0596 2.46862 35.1328 2.67653L31.3599 5.69486C31.0504 5.50124 30.6888 5.38462 30.3003 5.38462C29.4295 5.38462 28.6879 5.95131 28.4073 6.73077H22.0972C21.8165 5.95131 21.0749 5.38462 20.2041 5.38462C19.0969 5.38462 18.1849 6.29663 18.1849 7.40385C18.1849 7.75048 18.2832 8.07187 18.4399 8.35825L14.9194 12.2705C14.6809 12.1703 14.4195 12.1154 14.1464 12.1154C13.0392 12.1154 12.1272 13.0274 12.1272 14.1346C12.1272 14.141 12.1298 14.1467 12.1298 14.153L8.28857 15.5491C7.91686 15.1008 7.36445 14.8077 6.7426 14.8077C6.26683 14.8077 5.83265 14.9826 5.48584 15.2625L1.06351 12.2337C0.952665 12.1553 0.820685 12.1122 0.684908 12.1101C0.539049 12.1076 0.396309 12.1525 0.278178 12.2381C0.160048 12.3237 0.0729212 12.4453 0.0299153 12.5847C-0.0130906 12.7241 -0.00964775 12.8737 0.0397255 13.011C0.0890987 13.1483 0.18173 13.2658 0.303673 13.3459L4.7707 16.4036C4.74099 16.5404 4.72337 16.6818 4.72337 16.8269C4.72337 17.9341 5.63538 18.8462 6.7426 18.8462C7.84982 18.8462 8.76183 17.9341 8.76183 16.8269C8.76183 16.8206 8.75926 16.8148 8.7592 16.8085L12.6005 15.4124C12.9722 15.8599 13.5253 16.1538 14.1464 16.1538C15.2537 16.1538 16.1657 15.2418 16.1657 14.1346C16.1657 13.7892 16.069 13.4658 15.9133 13.1802L19.4338 9.26795C19.6715 9.36732 19.9323 9.42308 20.2041 9.42308C21.074 9.42308 21.8159 8.85517 22.0972 8.07692H28.4073C28.6886 8.85517 29.4304 9.42308 30.3003 9.42308C31.4075 9.42308 32.3195 8.51106 32.3195 7.40385C32.3195 7.17405 32.2707 6.95574 32.1986 6.74917L35.9741 3.72822C36.2831 3.92101 36.6434 4.03846 37.0311 4.03846C37.7397 4.03846 38.3635 3.66168 38.7243 3.10246L42.2448 4.01743C42.3317 4.0443 42.4231 4.05328 42.5136 4.04384C42.604 4.0344 42.6916 4.00672 42.7711 3.96248C42.8505 3.91825 42.9202 3.85837 42.9759 3.78646C43.0316 3.71455 43.0721 3.6321 43.0951 3.54409C43.118 3.45608 43.1228 3.36434 43.1093 3.2744C43.0958 3.18446 43.0643 3.09819 43.0165 3.02079C42.9687 2.9434 42.9058 2.87649 42.8314 2.8241C42.7571 2.77171 42.6729 2.73492 42.5839 2.71597L39.0266 1.79049C38.9102 0.790404 38.0601 0 37.0311 0ZM37.0311 1.34615C37.4108 1.34615 37.7041 1.63962 37.7041 2.01923C37.7041 2.39898 37.4108 2.69231 37.0311 2.69231C36.6514 2.69231 36.358 2.39898 36.358 2.01923C36.358 1.63962 36.6514 1.34615 37.0311 1.34615ZM42.3657 6.72288C42.268 6.73154 42.1734 6.76144 42.0885 6.81049C42.0036 6.85953 41.9304 6.92655 41.8741 7.00684L38.4929 11.6027C38.2502 11.4984 37.983 11.4423 37.7041 11.4423C36.5969 11.4423 35.6849 12.3543 35.6849 13.4615C35.6849 13.7412 35.7431 14.0071 35.8479 14.2503L30.5685 19.0907C30.2857 18.9389 29.9678 18.8462 29.6272 18.8462C29.1428 18.8462 28.7017 19.0277 28.3521 19.3168L24.8736 17.2292C24.9007 17.0983 24.9157 16.9653 24.9157 16.8269C24.9157 15.7197 24.0037 14.8077 22.8964 14.8077C21.7892 14.8077 20.8772 15.7197 20.8772 16.8269C20.8772 17.1366 20.9553 17.4259 21.0823 17.6893L17.0307 21.7409C16.7672 21.6139 16.4754 21.5385 16.1657 21.5385C15.1025 21.5385 14.2282 22.3817 14.1596 23.4289L8.3806 25.08C8.01275 24.5676 7.4152 24.2308 6.7426 24.2308C6.23361 24.2308 5.7717 24.4303 5.41485 24.7461L1.07403 21.6647C0.965145 21.583 0.834054 21.5362 0.698054 21.5306V21.5332C0.552595 21.5286 0.409554 21.5712 0.290369 21.6547C0.171184 21.7382 0.0822736 21.8581 0.0369636 21.9964C-0.00834638 22.1347 -0.00761566 22.284 0.0390463 22.4218C0.0857082 22.5597 0.175788 22.6787 0.295785 22.761L4.75755 25.9292C4.74035 26.0344 4.72337 26.1403 4.72337 26.25C4.72337 27.3572 5.63538 28.2692 6.7426 28.2692C7.80729 28.2692 8.68234 27.4228 8.74868 26.3736L14.5277 24.7251C14.8955 25.2375 15.4931 25.5769 16.1657 25.5769C17.2729 25.5769 18.1849 24.6649 18.1849 23.5577C18.1849 23.2489 18.1062 22.9582 17.9798 22.6953L22.0341 18.6411C22.2971 18.7676 22.5874 18.8462 22.8964 18.8462C23.3798 18.8462 23.8197 18.6635 24.169 18.3755L27.6501 20.4657C27.6236 20.5951 27.608 20.7288 27.608 20.8654C27.608 21.9726 28.52 22.8846 29.6272 22.8846C30.7344 22.8846 31.6464 21.9726 31.6464 20.8654C31.6464 20.5865 31.5877 20.3193 31.4834 20.0766L36.7655 15.2363C37.0477 15.3871 37.3646 15.4808 37.7041 15.4808C38.8114 15.4808 39.7234 14.5688 39.7234 13.4615C39.7234 13.1245 39.6303 12.8088 39.4815 12.5282L42.9573 7.80349C43.0326 7.70453 43.079 7.58665 43.0914 7.46293C43.1037 7.33921 43.0816 7.21447 43.0274 7.10256C42.9732 6.99065 42.8891 6.89593 42.7844 6.82891C42.6797 6.76189 42.5584 6.72519 42.4341 6.72288C42.4113 6.72172 42.3885 6.72172 42.3657 6.72288ZM20.2041 6.73077C20.5838 6.73077 20.8772 7.02423 20.8772 7.40385C20.8772 7.7836 20.5838 8.07692 20.2041 8.07692C19.8244 8.07692 19.5311 7.7836 19.5311 7.40385C19.5311 7.02423 19.8244 6.73077 20.2041 6.73077ZM30.3003 6.73077C30.68 6.73077 30.9734 7.02423 30.9734 7.40385C30.9734 7.7836 30.68 8.07692 30.3003 8.07692C29.9357 8.07692 29.6573 7.80357 29.6351 7.44591C29.6369 7.4179 29.6369 7.3898 29.6351 7.36178C29.6571 7.00402 29.9356 6.73077 30.3003 6.73077ZM37.7041 12.7885C37.8707 12.7885 38.0142 12.8507 38.1301 12.9462C38.1563 12.9777 38.1853 13.0068 38.2168 13.033C38.3125 13.1489 38.3772 13.2948 38.3772 13.4615C38.3772 13.8413 38.0838 14.1346 37.7041 14.1346C37.3244 14.1346 37.0311 13.8413 37.0311 13.4615C37.0311 13.0819 37.3244 12.7885 37.7041 12.7885ZM14.1464 13.4615C14.5261 13.4615 14.8195 13.755 14.8195 14.1346C14.8195 14.5144 14.5261 14.8077 14.1464 14.8077C13.7667 14.8077 13.4734 14.5144 13.4734 14.1346C13.4734 13.755 13.7667 13.4615 14.1464 13.4615ZM6.7426 16.1538C7.1223 16.1538 7.41568 16.4473 7.41568 16.8269C7.41568 17.2067 7.1223 17.5 6.7426 17.5C6.3629 17.5 6.06952 17.2067 6.06952 16.8269C6.06952 16.4473 6.3629 16.1538 6.7426 16.1538ZM22.8964 16.1538C23.2761 16.1538 23.5695 16.4473 23.5695 16.8269C23.5695 17.2067 23.2761 17.5 22.8964 17.5C22.5167 17.5 22.2234 17.2067 22.2234 16.8269C22.2234 16.4473 22.5167 16.1538 22.8964 16.1538ZM29.6272 20.1923C30.0069 20.1923 30.3003 20.4858 30.3003 20.8654C30.3003 21.2451 30.0069 21.5385 29.6272 21.5385C29.2475 21.5385 28.9541 21.2451 28.9541 20.8654C28.9541 20.4858 29.2475 20.1923 29.6272 20.1923ZM37.0311 20.1923C35.9238 20.1923 35.0118 21.1043 35.0118 22.2115C35.0118 22.5631 35.1111 22.8898 35.2721 23.1791L30.4239 28.4349C30.1789 28.3282 29.9094 28.2692 29.6272 28.2692C29.0282 28.2692 28.4919 28.5403 28.1207 28.9607L24.9078 27.6777C24.9089 27.6499 24.9157 27.6242 24.9157 27.5962C24.9157 26.4889 24.0037 25.5769 22.8964 25.5769C21.7892 25.5769 20.8772 26.4889 20.8772 27.5962C20.8772 27.8277 20.9249 28.0455 20.9982 28.2535L17.2252 31.2718C16.9158 31.0782 16.5542 30.9615 16.1657 30.9615C15.2949 30.9615 14.5533 31.5282 14.2726 32.3077H8.63563C8.35498 31.5282 7.61335 30.9615 6.7426 30.9615C6.3349 30.9615 5.95468 31.0866 5.6357 31.2981L1.14239 27.1045C1.07747 27.0423 1.00075 26.9937 0.916762 26.9617C0.83277 26.9296 0.743207 26.9147 0.653357 26.9178C0.519243 26.9223 0.389517 26.9667 0.280834 27.0454C0.172152 27.1241 0.0894719 27.2335 0.0434099 27.3595C-0.00265213 27.4856 -0.00999433 27.6225 0.0223259 27.7527C0.0546461 27.883 0.125154 28.0006 0.224797 28.0904L4.82591 32.3839C4.76595 32.5739 4.72337 32.7722 4.72337 32.9808C4.72337 34.088 5.63538 35 6.7426 35C7.61247 35 8.35432 34.4321 8.63563 33.6538H14.2726C14.554 34.4321 15.2958 35 16.1657 35C17.2729 35 18.1849 34.088 18.1849 32.9808C18.1849 32.7501 18.1367 32.5307 18.064 32.3235L21.8369 29.3051C22.1463 29.4987 22.508 29.6154 22.8964 29.6154C23.4942 29.6154 24.0292 29.3427 24.4004 28.9239L27.6159 30.2096C27.6148 30.2363 27.608 30.2615 27.608 30.2885C27.608 31.3957 28.52 32.3077 29.6272 32.3077C30.7344 32.3077 31.6464 31.3957 31.6464 30.2885C31.6464 29.9514 31.5534 29.6358 31.4046 29.3551L36.2765 24.0783C36.5103 24.1739 36.7647 24.2308 37.0311 24.2308C37.717 24.2308 38.3271 23.8797 38.6927 23.35L41.9293 26.718C42.0534 26.8451 42.2227 26.918 42.4004 26.9207C42.578 26.9235 42.7495 26.8559 42.8775 26.7328C43.0056 26.6096 43.0797 26.4408 43.0838 26.2632C43.0879 26.0856 43.0216 25.9136 42.8995 25.7846L38.9767 21.7041C38.7482 20.8401 37.9624 20.1923 37.0311 20.1923ZM37.0311 21.5385C37.3675 21.5385 37.6237 21.7739 37.6805 22.0906C37.6805 22.0915 37.6805 22.0923 37.6805 22.0932C37.6848 22.1333 37.6927 22.1729 37.7041 22.2115C37.7041 22.5913 37.4108 22.8846 37.0311 22.8846C36.6514 22.8846 36.358 22.5913 36.358 22.2115C36.358 21.8319 36.6514 21.5385 37.0311 21.5385ZM16.1657 22.8846C16.5454 22.8846 16.8388 23.1781 16.8388 23.5577C16.8388 23.9374 16.5454 24.2308 16.1657 24.2308C15.786 24.2308 15.4926 23.9374 15.4926 23.5577C15.4926 23.1781 15.786 22.8846 16.1657 22.8846ZM6.7426 25.5769C7.1223 25.5769 7.41568 25.8704 7.41568 26.25C7.41568 26.6297 7.1223 26.9231 6.7426 26.9231C6.3629 26.9231 6.06952 26.6297 6.06952 26.25C6.06952 25.8704 6.3629 25.5769 6.7426 25.5769ZM22.8964 26.9231C23.2761 26.9231 23.5695 27.2165 23.5695 27.5962C23.5695 27.9759 23.2761 28.2692 22.8964 28.2692C22.5167 28.2692 22.2234 27.9759 22.2234 27.5962C22.2234 27.2165 22.5167 26.9231 22.8964 26.9231ZM29.6272 29.6154C30.0069 29.6154 30.3003 29.9088 30.3003 30.2885C30.3003 30.6682 30.0069 30.9615 29.6272 30.9615C29.2475 30.9615 28.9541 30.6682 28.9541 30.2885C28.9541 29.9088 29.2475 29.6154 29.6272 29.6154ZM6.7426 32.3077C7.1223 32.3077 7.41568 32.6012 7.41568 32.9808C7.41568 33.3605 7.1223 33.6538 6.7426 33.6538C6.3629 33.6538 6.06952 33.3605 6.06952 32.9808C6.06952 32.6012 6.3629 32.3077 6.7426 32.3077ZM16.1657 32.3077C16.5454 32.3077 16.8388 32.6012 16.8388 32.9808C16.8388 33.3605 16.5454 33.6538 16.1657 33.6538C15.8011 33.6538 15.5227 33.3805 15.5005 33.0228C15.5022 32.9948 15.5022 32.9667 15.5005 32.9387C15.5225 32.5809 15.801 32.3077 16.1657 32.3077Z" fill="#54D9B3"/>
</svg>
